<svg width="1663" height="155" viewBox="0 0 1663 155" fill="none" xmlns="http://www.w3.org/2000/svg">
<path d="M92.344 10.2275L92.4857 9.10259H91.3518H67.9158H66.7544L66.9269 10.2511C67.5805 14.6041 68.0733 19.9792 68.5677 27.2388C68.7194 30.6589 68.8711 34.3655 69.0229 38.3585H15.4322C9.85946 38.3585 1.98489 37.8534 -2.74757 37.1846L-3.88751 37.0235V38.1747V60.6663V61.7266L-2.82906 61.6646C2.94338 61.3266 10.0163 60.9899 15.9274 60.9899H59.0632C45.5958 79.8195 19.1124 102.696 -12.07 117.77L-13.2434 118.338L-12.3917 119.324L2.79222 136.912L3.31928 137.522L4.02753 137.136C29.2114 123.418 54.998 101.078 69.9382 81.9851C70.2166 98.3682 70.2166 114.051 70.2166 124.759C70.2166 127.14 69.8076 128.632 69.0942 129.525C68.4242 130.364 67.3293 130.861 65.4401 130.861C59.8852 130.861 51.033 130.19 43.6687 128.848L42.3855 128.614L42.4929 129.914L44.3083 151.899L44.3788 152.752L45.2332 152.814C54.6649 153.492 63.9312 153.831 74.0224 153.831C80.4469 153.831 85.3956 152.229 88.7187 149.075C92.053 145.911 93.5924 141.336 93.507 135.736C93.2741 119.623 92.8767 100.815 92.489 82.4653C92.3349 75.1682 92.1822 67.9436 92.0421 60.9899H112.312C115.288 60.9899 119.067 61.1413 122.838 61.2924C124.689 61.3665 126.538 61.4406 128.289 61.4967L129.321 61.5297V60.4972V38.0056V36.8204L128.153 37.0199C124.252 37.6861 116.551 38.3585 111.157 38.3585H91.5239C91.514 36.5064 91.4789 34.7175 91.4439 32.9966L91.4388 32.7455C91.3993 30.8048 91.3616 28.9543 91.3616 27.1826C91.3616 21.9723 91.6901 15.4198 92.344 10.2275ZM158.774 66.2652L157.689 66.1725V67.2616V93.8117V94.8983L158.772 94.8083C164.839 94.3042 175.866 93.9662 185.261 93.9662H273.889C278.783 93.9662 284.391 94.3038 288.678 94.5618C290.442 94.668 291.982 94.7607 293.156 94.8108L294.199 94.8553V93.8117V67.2616V66.1796L293.12 66.2646C292.61 66.3049 292.059 66.3497 291.472 66.3976C287.097 66.7539 280.684 67.2762 273.889 67.2762H185.261C176.703 67.2762 164.683 66.7697 158.774 66.2652ZM357.731 152.855L357.564 154H358.721H384.468H385.567L385.463 152.905C384.803 145.976 383.982 134.178 383.982 129.325V82.8797C401.673 89.1441 425.576 98.674 442.089 107.545L443.073 108.073L443.49 107.038L452.897 83.7008L453.242 82.8459L452.418 82.4329C437.329 74.8708 406.097 63.0195 383.982 56.3706V32.0868C383.982 25.2181 384.8 17.8322 385.461 11.9045L385.585 10.7937H384.468H358.721H357.507L357.739 11.9853C358.877 17.8155 359.371 26.1996 359.371 32.0868V129.325C359.371 136.047 358.714 146.144 357.731 152.855ZM603.159 10.0594L602.699 9.36176L601.93 9.69059L588.892 15.2712L587.765 15.7534L588.464 16.7604C592.524 22.6154 597.016 31.6243 600.421 38.4547C600.71 39.0345 600.992 39.5987 601.264 40.1439L601.693 41.0014L602.568 40.6092L615.771 34.6904L616.724 34.2633L616.256 33.3299C613.114 27.0594 607.317 16.3649 603.159 10.0594ZM622.63 2.44467L622.169 1.75377L621.405 2.08067L608.367 7.66128L607.226 8.14968L607.946 9.16071C612.355 15.3518 617.773 25.272 621.061 32.1784L621.477 33.0515L622.363 32.6654L635.566 26.9157L636.535 26.4941L636.061 25.5503C633.073 19.5975 626.946 8.90766 622.63 2.44467ZM504.348 92.6011L504.343 92.6134C498.763 107.412 489.07 125.592 478.732 139.379L477.971 140.394L479.136 140.897L502.242 150.874L502.995 151.2L503.461 150.524C512.263 137.762 522.038 118.405 528.005 101.931C533.803 86.143 539.756 62.7558 542.074 50.8804L542.076 50.872L542.078 50.8636C542.733 47.1686 544.541 38.923 546.011 34.0678L546.327 33.024L545.26 32.7994L521.164 27.7261L520.065 27.4948L519.962 28.6128C517.991 49.9814 511.746 73.7337 504.348 92.6011ZM585.867 89.7479L585.869 89.7548C592.454 107.971 598.385 129.238 603 149.334L603.246 150.406L604.29 150.059L628.716 141.942L629.617 141.643L629.364 140.727C624.736 123.959 615.979 96.8714 610.19 81.6192L610.19 81.617C603.909 65.1888 592.506 39.1093 585.717 26.0451L585.324 25.289L584.515 25.5569L562.564 32.8286L561.433 33.2035L561.998 34.2526C568.899 47.0471 579.607 72.025 585.867 89.7479ZM648.611 78.8086L647.433 79.1189L647.967 80.2142L658.365 101.522L658.737 102.285L659.551 102.041C679.342 96.106 699.745 87.293 716.524 78.3988V130.847C716.524 138.282 716.027 148.866 715.381 152.839L715.192 154H716.368H742.445H743.755L743.41 152.736C742.864 150.738 742.495 147.16 742.268 143.073C742.042 139.017 741.96 134.555 741.96 130.847V63.0569C757.872 52.2544 773.592 39.1475 786.067 26.5329L786.774 25.8177L786.055 25.1146L768.23 7.69629L767.442 6.92584L766.752 7.78538C756.097 21.0535 737.369 37.8902 720.458 48.6581C702.229 60.1006 678.062 71.0538 648.611 78.8086Z" stroke="url(#paint0_linear_4_42)" stroke-width="2"/>
<path d="M966.901 10.2275L967.042 9.10259H965.908H942.472H941.311L941.484 10.2511C942.137 14.6041 942.63 19.9792 943.124 27.2388C943.276 30.6589 943.428 34.3655 943.579 38.3585H889.989C884.416 38.3585 876.542 37.8534 871.809 37.1846L870.669 37.0235V38.1747V60.6663V61.7266L871.728 61.6646C877.5 61.3266 884.573 60.9899 890.484 60.9899H933.62C920.152 79.8195 893.669 102.696 862.487 117.77L861.313 118.338L862.165 119.324L877.349 136.912L877.876 137.522L878.584 137.136C903.768 123.418 929.555 101.078 944.495 81.9851C944.773 98.3682 944.773 114.051 944.773 124.759C944.773 127.14 944.364 128.632 943.651 129.525C942.981 130.364 941.886 130.861 939.997 130.861C934.442 130.861 925.59 130.19 918.225 128.848L916.942 128.614L917.05 129.914L918.865 151.899L918.935 152.752L919.79 152.814C929.222 153.492 938.488 153.831 948.579 153.831C955.004 153.831 959.952 152.228 963.275 149.075C966.61 145.911 968.149 141.336 968.064 135.736C967.831 119.623 967.433 100.814 967.046 82.4637C966.891 75.1671 966.739 67.943 966.599 60.9899H986.869C989.845 60.9899 993.624 61.1413 997.395 61.2924C999.246 61.3665 1001.09 61.4406 1002.85 61.4967L1003.88 61.5297V60.4972V38.0056V36.8204L1002.71 37.0199C998.809 37.6861 991.108 38.3585 985.714 38.3585H966.081C966.071 36.5064 966.036 34.7175 966.001 32.9966L965.995 32.7475C965.956 30.8061 965.918 28.9549 965.918 27.1826C965.918 21.9723 966.247 15.4198 966.901 10.2275ZM1033.33 66.2652L1032.25 66.1725V67.2616V93.8117V94.8983L1033.33 94.8083C1039.4 94.3042 1050.42 93.9662 1059.82 93.9662H1148.45C1153.34 93.9662 1158.95 94.3038 1163.23 94.5618C1165 94.668 1166.54 94.7607 1167.71 94.8108L1168.76 94.8553V93.8117V67.2616V66.1796L1167.68 66.2647C1167.17 66.3049 1166.62 66.3497 1166.03 66.3976C1161.65 66.7539 1155.24 67.2762 1148.45 67.2762H1059.82C1051.26 67.2762 1039.24 66.7697 1033.33 66.2652ZM1232.29 152.855L1232.12 154H1233.28H1259.02H1260.12L1260.02 152.905C1259.36 145.976 1258.54 134.178 1258.54 129.325V82.8797C1276.23 89.1441 1300.13 98.674 1316.65 107.545L1317.63 108.073L1318.05 107.038L1327.45 83.7008L1327.8 82.8459L1326.97 82.4329C1311.89 74.8708 1280.65 63.0195 1258.54 56.3706V32.0868C1258.54 25.2181 1259.36 17.8322 1260.02 11.9045L1260.14 10.7937H1259.02H1233.28H1232.06L1232.3 11.9853C1233.43 17.8155 1233.93 26.1996 1233.93 32.0868V129.325C1233.93 136.047 1233.27 146.144 1232.29 152.855ZM1477.72 10.0594L1477.26 9.36176L1476.49 9.69059L1463.45 15.2712L1462.32 15.7534L1463.02 16.7604C1467.08 22.6159 1471.57 31.6259 1474.98 38.4564C1475.27 39.0357 1475.55 39.5992 1475.82 40.1439L1476.25 41.0014L1477.12 40.6092L1490.33 34.6904L1491.28 34.2633L1490.81 33.3299C1487.67 27.0594 1481.87 16.3649 1477.72 10.0594ZM1497.19 2.44467L1496.73 1.75377L1495.96 2.08067L1482.92 7.66128L1481.78 8.14968L1482.5 9.16071C1486.91 15.3518 1492.33 25.272 1495.62 32.1784L1496.03 33.0515L1496.92 32.6654L1510.12 26.9157L1511.09 26.4941L1510.62 25.5503C1507.63 19.5975 1501.5 8.90766 1497.19 2.44467ZM1378.9 92.6011L1378.9 92.6134C1373.32 107.412 1363.63 125.592 1353.29 139.379L1352.53 140.394L1353.69 140.897L1376.8 150.874L1377.55 151.2L1378.02 150.524C1386.82 137.763 1396.59 118.408 1402.56 101.936C1408.36 86.1472 1414.31 62.7568 1416.63 50.8804L1416.63 50.872L1416.63 50.8636C1417.29 47.1686 1419.1 38.923 1420.57 34.0678L1420.88 33.024L1419.82 32.7994L1395.72 27.7261L1394.62 27.4948L1394.52 28.6128C1392.55 49.9814 1386.3 73.7337 1378.9 92.6011ZM1460.42 89.7479L1460.43 89.7548C1467.01 107.971 1472.94 129.238 1477.56 149.334L1477.8 150.406L1478.85 150.059L1503.27 141.942L1504.17 141.643L1503.92 140.727C1499.29 123.959 1490.54 96.8714 1484.75 81.6192L1484.75 81.617C1478.47 65.1888 1467.06 39.1093 1460.27 26.0451L1459.88 25.289L1459.07 25.5569L1437.12 32.8286L1435.99 33.2035L1436.56 34.2526C1443.46 47.0471 1454.16 72.025 1460.42 89.7479ZM1523.17 78.8086L1521.99 79.1189L1522.52 80.2142L1532.92 101.522L1533.29 102.285L1534.11 102.041C1553.9 96.106 1574.3 87.293 1591.08 78.3988V130.847C1591.08 138.282 1590.58 148.866 1589.94 152.839L1589.75 154H1590.92H1617H1618.31L1617.97 152.736C1617.42 150.738 1617.05 147.16 1616.82 143.073C1616.6 139.017 1616.52 134.555 1616.52 130.847V63.0569C1632.43 52.2544 1648.15 39.1475 1660.62 26.5329L1661.33 25.8177L1660.61 25.1146L1642.79 7.69629L1642 6.92584L1641.31 7.78538C1630.65 21.0545 1611.92 37.8929 1595.01 48.6606C1576.78 60.1022 1552.62 71.0544 1523.17 78.8086Z" stroke="url(#paint1_linear_4_42)" stroke-width="2"/>
<defs>
<linearGradient id="paint0_linear_4_42" x1="785.356" y1="153" x2="521.709" y2="-304.413" gradientUnits="userSpaceOnUse">
<stop stop-color="#9A6A44"/>
<stop offset="0.28125" stop-color="#FFF4BC"/>
<stop offset="0.53125" stop-color="#AB6516"/>
<stop offset="0.760417" stop-color="#9C3E09"/>
<stop offset="1" stop-color="#E7D4A6"/>
</linearGradient>
<linearGradient id="paint1_linear_4_42" x1="1659.91" y1="153" x2="1396.27" y2="-304.413" gradientUnits="userSpaceOnUse">
<stop stop-color="#9A6A44"/>
<stop offset="0.28125" stop-color="#FFF4BC"/>
<stop offset="0.53125" stop-color="#AB6516"/>
<stop offset="0.760417" stop-color="#9C3E09"/>
<stop offset="1" stop-color="#E7D4A6"/>
</linearGradient>
</defs>
</svg>
